<svg width="74" height="65" viewBox="0 0 74 65" fill="none" xmlns="http://www.w3.org/2000/svg">
<path fill-rule="evenodd" clip-rule="evenodd" d="M1.21637 63.0113C4.47645 58.0848 9.31824 54.4276 14.9426 52.6751C20.9924 50.79 27.5176 51.2426 33.2567 53.9452C35.7827 54.8776 38.4491 55.3748 41.1449 55.4126C43.8553 55.4505 46.5488 55.0233 49.1118 54.1525C49.4626 54.0334 49.8109 53.9059 50.1565 53.7701C50.2293 53.7415 50.3021 53.7125 50.3747 53.6832L50.3677 53.6684L50.3686 53.6679C50.598 53.5575 50.8292 53.4521 51.0622 53.352C51.2401 53.2755 51.419 53.2021 51.5989 53.1316C54.7683 51.8908 58.232 51.5893 61.5804 52.2781C65.3381 53.0511 68.7131 54.6911 71.4057 58.174L69.9098 58.9312C67.6659 56.054 64.7094 54.5748 61.2617 53.8656C57.8339 53.1605 54.2732 53.5955 51.1102 55.1049L51.1124 55.1105C51.109 55.1119 51.1056 55.1133 51.1021 55.1147C50.9329 55.1843 50.7631 55.2519 50.5927 55.3177C50.3492 55.4118 50.1043 55.502 49.8583 55.5884C47.0538 56.573 44.0979 57.0571 41.123 57.0154C38.2064 56.9746 35.322 56.4291 32.5936 55.4063L32.5785 55.439C32.5769 55.4382 32.5752 55.4374 32.5735 55.4366C32.3786 55.3449 32.1828 55.2558 31.9861 55.1696C31.7678 55.0813 31.5506 54.9899 31.3346 54.8955C26.2711 52.853 20.6556 52.615 15.4204 54.2463C9.75267 56.0123 4.93351 59.8437 1.89531 64.999L1.89474 64.9999L0.5 64.1577C0.729398 63.7684 0.968307 63.3862 1.21637 63.0113Z" fill="white"/>
<path d="M13.8877 5.70166L15.44 6.00366L5.07756 60.585L3.52526 60.283L13.8877 5.70166Z" fill="white"/>
<path d="M27.4999 6.16782C27.3062 4.483 26.5126 2.92737 25.2676 1.79216C24.0226 0.656947 22.4116 0.0199674 20.7361 0.00046158C19.0606 -0.0190442 17.4355 0.580261 16.1651 1.68619C14.8946 2.79212 14.0659 4.32885 13.834 6.00873L15.4101 6.23168C15.5884 4.93986 16.2257 3.75811 17.2027 2.90765C18.1797 2.05719 19.4294 1.59632 20.7178 1.61132C22.0062 1.62632 23.2451 2.11616 24.2025 2.98914C25.1599 3.86212 25.7702 5.05839 25.9192 6.35402L27.4999 6.16782Z" fill="white"/>
<path fill-rule="evenodd" clip-rule="evenodd" d="M25.9189 6.35174C25.7695 5.05699 25.1594 3.86161 24.2025 2.98914C23.2451 2.11616 22.0062 1.62632 20.7178 1.61132C19.4294 1.59632 18.1797 2.05719 17.2027 2.90765C16.2259 3.75793 15.5887 4.93937 15.4102 6.23088C15.4101 6.23114 15.4101 6.23141 15.4101 6.23168L13.834 6.00873C13.8966 5.55486 14.0029 5.11145 14.1496 4.68416C14.5459 3.52992 15.2379 2.49332 16.1651 1.68619C17.4355 0.580261 19.0606 -0.0190442 20.7361 0.00046158C22.4116 0.0199674 24.0226 0.656947 25.2676 1.79216C26.1762 2.62067 26.8444 3.6731 27.2145 4.83626C27.3512 5.26604 27.4472 5.71093 27.4996 6.16523C27.4997 6.16609 27.4998 6.16696 27.4999 6.16782L25.9192 6.35402C25.9191 6.35326 25.919 6.3525 25.9189 6.35174Z" fill="white"/>
<path d="M13.9209 5.96411L73.4108 1.93709L73.4108 2.48596L14.0178 7.39137L13.9209 5.96411Z" fill="white"/>
<path d="M13.3491 10.3688L72.0725 17.1247L72.0711 17.6608L12.7711 11.8748L13.3491 10.3688Z" fill="white"/>
<path d="M26.0641 26.8537H25.1041C25.0937 24.3561 25.0421 22.6266 24.9492 21.6652C26.0745 21.707 27.8397 21.7592 30.2451 21.8219C32.1962 21.8637 33.4969 21.8846 34.1473 21.8846C34.8492 21.8846 36.4752 21.8533 39.025 21.7906C40.8729 21.7488 42.2201 21.707 43.0666 21.6652C42.9427 22.8356 42.8601 24.5651 42.8188 26.8537H41.8278L41.7039 25.3489C41.6213 24.4397 41.5645 23.9224 41.5336 23.797C41.5026 23.6716 41.4561 23.5828 41.3942 23.5305C41.3426 23.4783 41.26 23.4365 41.1464 23.4051C41.0019 23.3738 40.4857 23.332 39.5979 23.2797C38.7101 23.2275 38.0082 23.2013 37.492 23.2013H35.6028C35.4996 24.2046 35.448 25.5579 35.448 27.2612V36.4313C35.448 37.8525 35.4635 39.2372 35.4944 40.5852C35.5254 41.578 35.5977 42.1684 35.7112 42.3565C35.8351 42.5446 36.0261 42.6857 36.2842 42.7798C36.5526 42.8634 37.301 42.9156 38.5295 42.9365V43.9397C36.6816 43.8561 35.2931 43.8143 34.364 43.8143C33.9614 43.8143 32.351 43.8561 29.5328 43.9397V42.9365C30.7612 42.9156 31.5097 42.8634 31.7781 42.7798C32.0465 42.6857 32.2271 42.5603 32.32 42.4036C32.4542 42.1946 32.5368 41.6877 32.5678 40.8831C32.5678 40.6636 32.5884 39.1797 32.6297 36.4313V27.2926C32.6297 26.8537 32.6194 26.373 32.5988 25.8505L32.5059 23.2013H30.1986C28.8669 23.2013 27.8088 23.2536 27.0242 23.3581C26.7764 23.3894 26.6164 23.4574 26.5442 23.5619C26.4306 23.7395 26.3274 24.3091 26.2345 25.2705L26.0641 26.8537Z" fill="white"/>
<path d="M37.155 48.0174C37.3202 47.0141 37.4182 45.3891 37.4492 43.1423H38.5022C38.5538 44.6681 38.6364 45.572 38.7499 45.8542C38.8738 46.1259 39.1629 46.4185 39.6171 46.732C40.0713 47.0455 40.6804 47.3276 41.4443 47.5784C42.2082 47.8188 42.9463 47.939 43.6587 47.939C44.7013 47.939 45.6614 47.6986 46.5388 47.2179C47.4163 46.7268 48.0564 46.0893 48.459 45.3055C48.8616 44.5113 49.0629 43.6648 49.0629 42.7661C49.0629 42.0764 48.9597 41.4808 48.7532 40.9791C48.557 40.4775 48.2525 40.0752 47.8396 39.7722C47.4266 39.4586 46.9156 39.2392 46.3066 39.1138C45.9246 39.0511 45.1607 38.9466 44.0148 38.8003C42.8689 38.654 41.8934 38.492 41.0882 38.3144C40.0145 37.9799 39.2248 37.5881 38.719 37.1387C38.2131 36.6893 37.8002 36.0989 37.4802 35.3674C37.1705 34.6359 37.0156 33.8469 37.0156 33.0004C37.0156 31.7673 37.3305 30.6073 37.9602 29.5205C38.6002 28.4232 39.5397 27.5716 40.7785 26.9654C42.0276 26.3593 43.3799 26.0563 44.8355 26.0563C45.713 26.0563 46.6679 26.1765 47.7002 26.4168C48.7429 26.6467 49.7133 26.9863 50.6114 27.4357C50.4669 28.0941 50.3636 28.7106 50.3017 29.2854C50.2397 29.8497 50.1933 30.6857 50.1623 31.7934H49.1093C49.0784 30.1841 49.0319 29.3063 48.97 29.16C48.7119 28.7838 48.3609 28.4441 47.917 28.1411C46.8537 27.535 45.744 27.2319 44.5877 27.2319C43.0909 27.2319 41.8934 27.697 40.9952 28.627C40.1074 29.5466 39.6635 30.7432 39.6635 32.2167C39.6635 33.1049 39.8236 33.7946 40.1436 34.2858C40.4636 34.7665 41.0365 35.1532 41.8624 35.4458C42.4302 35.6443 43.3593 35.8324 44.6497 36.0101C45.9401 36.1773 47.1015 36.3602 48.1338 36.5587C49.1042 36.8513 49.8216 37.2014 50.2862 37.609C50.7507 38.0061 51.1327 38.5338 51.4321 39.1922C51.7315 39.8401 51.8811 40.6029 51.8811 41.4808C51.8811 43.5603 51.0295 45.3735 49.3261 46.9201C47.6228 48.4667 45.4188 49.24 42.7141 49.24C40.6701 49.24 38.817 48.8325 37.155 48.0174Z" fill="white"/>
</svg>
